<?xml version="1.0" encoding="UTF-8"?>
<svg width="1600" height="1400" viewBox="0 0 1600 1400" fill="none" xmlns="http://www.w3.org/2000/svg" role="img" aria-label="AWS Student Builder Group FAST PWR transparent stacked logo">
  <path d="M2333.33 3000H2000V2666.67H1666.67V3000H1333.33V2666.67H1000V3000H666.667V2333.33H2333.33V3000ZM666.667 2333.33H0V2000H333.333V1666.67H0V1333.33H333.333V1000H0V666.667H666.667V2333.33ZM3000 1000H2666.67V1333.33H3000V1666.67H2666.67V2000H3000V2333.33H2333.33V666.667H3000V1000ZM1000 333.333H1333.33V0H1666.67V333.333H2000V0H2333.33V666.667H666.667V0H1000V333.333Z" transform="translate(480 110) scale(0.213333)" fill="#FFFFFF"/>
  <text x="800" y="920" fill="#FFFFFF" text-anchor="middle" font-family="DejaVu Sans Mono" font-size="76" font-weight="700">AWS Student Builder Group</text>
  <text x="800" y="1030" fill="#FFFFFF" text-anchor="middle" font-family="DejaVu Sans Mono" font-size="78" font-weight="700">FAST PWR</text>
</svg>
