<?xml version="1.0" encoding="UTF-8"?>
<svg width="2400" height="640" viewBox="0 0 2400 640" fill="none" xmlns="http://www.w3.org/2000/svg" role="img" aria-label="AWS Student Builder Group FAST PWR transparent horizontal logo">
  <path d="M2333.33 3000H2000V2666.67H1666.67V3000H1333.33V2666.67H1000V3000H666.667V2333.33H2333.33V3000ZM666.667 2333.33H0V2000H333.333V1666.67H0V1333.33H333.333V1000H0V666.667H666.667V2333.33ZM3000 1000H2666.67V1333.33H3000V1666.67H2666.67V2000H3000V2333.33H2333.33V666.667H3000V1000ZM1000 333.333H1333.33V0H1666.67V333.333H2000V0H2333.33V666.667H666.667V0H1000V333.333Z" transform="translate(140 120) scale(0.133333)" fill="#FFFFFF"/>
  <text x="650" y="278" fill="#FFFFFF" font-family="DejaVu Sans" font-size="92" font-weight="700">AWS Student Builder</text>
  <text x="650" y="398" fill="#FFFFFF" font-family="DejaVu Sans" font-size="92" font-weight="700">Group FAST PWR</text>
</svg>
